<?xml version="1.0" encoding="UTF-8" standalone="no"?>
<svg
   xmlns:dc="http://purl.org/dc/elements/1.1/"
   xmlns:cc="http://creativecommons.org/ns#"
   xmlns:rdf="http://www.w3.org/1999/02/22-rdf-syntax-ns#"
   xmlns:svg="http://www.w3.org/2000/svg"
   xmlns="http://www.w3.org/2000/svg"
   xmlns:sodipodi="http://sodipodi.sourceforge.net/DTD/sodipodi-0.dtd"
   xmlns:inkscape="http://www.inkscape.org/namespaces/inkscape"
   width="200"
   height="200"
   viewBox="0 0 52.916668 52.916666"
   version="1.1"
   id="svg8"
   inkscape:version="1.0.2-2 (e86c870879, 2021-01-15)"
   sodipodi:docname="conspiratorialist.svg">
  <defs
     id="defs2">
    <rect
       x="-130.60224"
       y="134.99334"
       width="68.567998"
       height="20.579753"
       id="rect880" />
    <inkscape:path-effect
       effect="envelope"
       id="path-effect4658"
       is_visible="true"
       yy="true"
       xx="true"
       bendpath1="m -199.08406,108.42369 h 7.0057"
       bendpath2="m -192.07836,108.42369 v 6.75242"
       bendpath3="m -199.08406,115.17611 h 7.0057"
       bendpath4="m -199.08406,108.42369 v 6.75242" />
    <inkscape:path-effect
       effect="bend_path"
       id="path-effect4656"
       is_visible="true"
       bendpath="m -192.00142,114.60623 c 2.12577,-0.53066 4.48261,0.85111 7.0057,0"
       prop_scale="1"
       scale_y_rel="false"
       vertical="false"
       bendpath-nodetypes="cc" />
    <inkscape:path-effect
       effect="bounding_box"
       id="path-effect4654"
       is_visible="true"
       linkedpath=""
       visualbounds="false" />
  </defs>
  <sodipodi:namedview
     id="base"
     pagecolor="#ffffff"
     bordercolor="#666666"
     borderopacity="1.0"
     inkscape:pageopacity="0.0"
     inkscape:pageshadow="2"
     inkscape:zoom="1.6290957"
     inkscape:cx="186.51222"
     inkscape:cy="87.031845"
     inkscape:document-units="px"
     inkscape:current-layer="layer1"
     showgrid="false"
     fit-margin-top="0"
     fit-margin-left="0"
     fit-margin-right="0"
     fit-margin-bottom="0"
     inkscape:window-width="1280"
     inkscape:window-height="961"
     inkscape:window-x="-8"
     inkscape:window-y="-8"
     inkscape:window-maximized="1"
     showguides="false"
     inkscape:object-nodes="true"
     units="px"
     inkscape:snap-page="true"
     inkscape:document-rotation="0" />
  <metadata
     id="metadata5">
    <rdf:RDF>
      <cc:Work
         rdf:about="">
        <dc:format>image/svg+xml</dc:format>
        <dc:type
           rdf:resource="http://purl.org/dc/dcmitype/StillImage" />
        <dc:title />
      </cc:Work>
    </rdf:RDF>
  </metadata>
  <g
     inkscape:label="Layer 1"
     inkscape:groupmode="layer"
     id="layer1"
     transform="translate(98.048812,-95.14345)">
    <rect
       y="95.143448"
       x="-98.048813"
       height="52.916668"
       width="52.916668"
       id="rect5163"
       style="fill:#222222;fill-opacity:1;fill-rule:nonzero;stroke:none;stroke-width:0.5;stroke-linecap:butt;stroke-linejoin:round;stroke-miterlimit:4;stroke-dasharray:none;stroke-dashoffset:0;stroke-opacity:0.909449;paint-order:normal"
       rx="3.96875"
       ry="3.96875" />
    <rect
       style="fill:#6c9569;fill-opacity:1;fill-rule:nonzero;stroke:none;stroke-width:0.5;stroke-linecap:butt;stroke-linejoin:round;stroke-miterlimit:4;stroke-dasharray:none;stroke-dashoffset:0;stroke-opacity:0.909449;paint-order:normal"
       id="rect5165"
       width="47.625"
       height="47.625"
       x="-95.402977"
       y="97.789284"
       rx="2.6458333"
       ry="2.6458333" />
    <path
       style="fill:#222222;fill-opacity:1;fill-rule:nonzero;stroke:none;stroke-width:0.5;stroke-linecap:butt;stroke-linejoin:round;stroke-miterlimit:4;stroke-dasharray:none;stroke-dashoffset:0;stroke-opacity:0.909449;paint-order:normal"
       d="m -96.593602,132.18512 v 8.33438 c 0,3.07816 2.478088,5.55624 5.55625,5.55624 h 38.893748 c 3.078162,0 5.55625,-2.47808 5.55625,-5.55624 v -8.33438 z"
       id="rect5205-3-6"
       inkscape:connector-curvature="0" />
    <g
       transform="matrix(0.00269914,0,0,-0.00269503,-89.120852,125.83759)"
       fill="#000000"
       stroke="none"
       id="g883"
       style="fill:#222222;fill-opacity:1">
      <path
         d="M 6045,8123 C 5853,7865 4598,6179 3256,4375 1913,2571 632,850 409,550 L 4,5 3202,2 C 4961,1 7839,1 9598,2 l 3198,3 -454,610 c -801,1075 -3583,4813 -4713,6330 -602,809 -1123,1509 -1158,1558 -35,48 -67,87 -71,87 -4,0 -164,-210 -355,-467 z M 7700,6153 C 8873,4581 9467,3782 9692,3475 l 81,-110 -54,50 c -116,108 -345,282 -559,425 -411,275 -866,499 -1319,649 -723,239 -1522,300 -2226,170 -771,-143 -1571,-516 -2324,-1085 -101,-76 -193,-146 -204,-154 -11,-8 60,94 159,227 98,132 847,1141 1664,2241 817,1101 1487,2001 1490,2001 3,0 588,-781 1300,-1736 z M 5400,3538 c -111,-188 -190,-379 -226,-543 -27,-127 -23,-314 10,-440 65,-249 244,-505 514,-733 48,-41 66,-62 54,-62 -33,0 -283,49 -412,80 -614,150 -1178,422 -1633,786 -126,101 -129,80 27,203 439,343 965,585 1631,749 68,17 69,15 35,-40 z m 2119,12 c 489,-128 970,-338 1336,-583 81,-55 286,-211 308,-235 17,-18 14,-22 -85,-101 -491,-391 -1054,-657 -1707,-806 -156,-35 -349,-70 -356,-63 -2,2 23,25 55,52 148,119 311,305 401,456 170,287 189,617 54,960 -43,108 -92,210 -141,291 -35,59 -39,69 -26,69 4,0 76,-18 161,-40 z M 6224,3437 c 21,-72 40,-140 43,-149 3,-11 0,-18 -9,-18 -31,0 -161,-72 -206,-114 -70,-66 -121,-180 -122,-273 v -33 h -150 -150 v 39 c 0,22 6,73 14,113 37,194 137,336 319,455 58,38 200,112 217,113 3,0 22,-60 44,-133 z m -2087,-12 c -350,-189 -687,-423 -906,-630 l -63,-61 89,-84 c 216,-204 632,-466 1040,-654 536,-247 1100,-402 1678,-462 227,-24 666,-24 890,0 801,84 1541,359 2255,838 127,86 387,278 457,339 l 33,28 -73,65 c -264,237 -595,459 -956,641 -61,31 -111,58 -111,60 0,17 1036,-314 1410,-451 79,-29 146,-52 147,-50 2,1 -11,22 -29,47 -17,24 -27,40 -21,34 7,-5 450,-604 987,-1330 l 975,-1320 -2770,-3 c -1523,-1 -4015,-1 -5538,0 l -2770,3 958,1289 957,1290 250,82 c 723,240 1250,413 1259,413 6,1 -61,-38 -148,-84 z m -1067,-29 c 0,-2 -8,-10 -17,-17 -16,-13 -17,-12 -4,4 13,16 21,21 21,13 z m 6721,-53 c 13,-16 12,-17 -3,-4 -10,7 -18,15 -18,17 0,8 8,3 21,-13 z m 30,-40 c 13,-16 12,-17 -3,-4 -10,7 -18,15 -18,17 0,8 8,3 21,-13 z m 39,-53 c 12,-16 19,-30 16,-30 -2,0 -14,14 -26,30 -12,17 -19,30 -16,30 2,0 14,-13 26,-30 z m 41,-57 c 13,-16 12,-17 -3,-4 -10,7 -18,15 -18,17 0,8 8,3 21,-13 z m 30,-40 c 13,-16 12,-17 -3,-4 -10,7 -18,15 -18,17 0,8 8,3 21,-13 z m 30,-40 c 13,-16 12,-17 -3,-4 -10,7 -18,15 -18,17 0,8 8,3 21,-13 z"
         id="path881"
         style="fill:#222222;fill-opacity:1" />
    </g>
    <text
       xml:space="preserve"
       style="font-weight:bold;font-size:4.46659px;line-height:1.25;font-family:Montserrat;-inkscape-font-specification:'Montserrat Bold';stroke-width:0.319041"
       x="-99.371498"
       y="135.37531"
       id="text1569"
       transform="scale(0.96028473,1.0413578)"><tspan
         sodipodi:role="line"
         id="tspan1567"
         x="-99.371498"
         y="135.37531"
         style="fill:#eeeeee;fill-opacity:1;stroke-width:0.319041">CONSPIRATORIALIST</tspan></text>
  </g>
</svg>
